<svg width="27" height="22" viewBox="0 0 27 22" fill="none" xmlns="http://www.w3.org/2000/svg">
<path d="M25.1253 20.8333H6.00859C4.56178 20.8333 3.83784 20.8333 3.28524 20.5517C2.79915 20.304 2.40424 19.9089 2.15657 19.4229C1.875 18.8702 1.875 18.1468 1.875 16.7V1.45831M25.125 4.04165L17.5743 10.6485C16.67 11.4397 16.2178 11.8354 15.7226 11.9996C15.1385 12.1934 14.5043 12.1722 13.9344 11.9401C13.4513 11.7432 13.0267 11.3185 12.177 10.4688C11.3458 9.63763 10.9302 9.22203 10.4563 9.02541C9.89717 8.79348 9.27463 8.7651 8.69684 8.94547C8.20702 9.09837 7.75534 9.47467 6.8523 10.2272L1.875 14.375" stroke="#CE5D30" stroke-width="2" stroke-linecap="round" stroke-linejoin="round"/>
</svg>
