<svg width="24" height="24" viewBox="0 0 24 24" fill="none" xmlns="http://www.w3.org/2000/svg">
<path d="M2.13263 5.87513L1.70641 10.5636L1.70513 10.5777C1.64155 11.277 1.60956 11.6288 1.66767 11.963C1.7195 12.2611 1.82282 12.5478 1.97382 12.81C2.14326 13.1041 2.39358 13.3544 2.89099 13.8518L2.89968 13.8605L9.56821 20.5291L9.57427 20.5351C10.5933 21.5541 11.1031 22.064 11.6918 22.2553C12.2107 22.4239 12.7697 22.4239 13.2885 22.2553C13.8784 22.0636 14.3909 21.552 15.414 20.529L20.5287 15.4143C21.5518 14.3912 22.0622 13.8798 22.2539 13.2899C22.4225 12.7711 22.4225 12.2122 22.2539 11.6934C22.0622 11.1035 21.5515 10.592 20.5285 9.56897L13.8599 2.90045C13.3567 2.39726 13.1051 2.14564 12.8092 1.97522C12.547 1.82422 12.2601 1.72042 11.9621 1.66859C11.6257 1.6101 11.2713 1.64227 10.5626 1.7067L5.87405 2.13293L5.8729 2.13303C4.65335 2.2439 4.04304 2.29938 3.5657 2.56483C3.14471 2.79893 2.79753 3.14611 2.56343 3.5671C2.29926 4.04215 2.24413 4.64857 2.13433 5.85645L2.13263 5.87513Z" stroke="#E6C54A" stroke-width="2" stroke-linecap="round" stroke-linejoin="round"/>
</svg>
