<svg width="31" height="31" viewBox="0 0 31 31" fill="none" xmlns="http://www.w3.org/2000/svg">
<path d="M6.13263 9.87513L5.70641 14.5636L5.70513 14.5777C5.64155 15.277 5.60956 15.6288 5.66767 15.963C5.7195 16.2611 5.82282 16.5478 5.97382 16.81C6.14326 17.1041 6.39358 17.3544 6.89099 17.8518L6.89968 17.8605L13.5682 24.5291L13.5743 24.5351C14.5933 25.5541 15.1031 26.064 15.6918 26.2553C16.2107 26.4239 16.7697 26.4239 17.2885 26.2553C17.8784 26.0636 18.3909 25.552 19.414 24.529L24.5287 19.4143C25.5518 18.3912 26.0622 17.8798 26.2539 17.2899C26.4225 16.7711 26.4225 16.2122 26.2539 15.6934C26.0622 15.1035 25.5515 14.592 24.5285 13.569L17.8599 6.90045C17.3567 6.39726 17.1051 6.14564 16.8092 5.97522C16.547 5.82422 16.2601 5.72042 15.9621 5.66859C15.6257 5.6101 15.2713 5.64227 14.5626 5.7067L9.87405 6.13293L9.8729 6.13303C8.65335 6.2439 8.04304 6.29938 7.5657 6.56483C7.14471 6.79893 6.79753 7.14611 6.56343 7.5671C6.29926 8.04215 6.24413 8.64857 6.13433 9.85645L6.13263 9.87513Z" stroke="#E6C54A" stroke-width="2" stroke-linecap="round" stroke-linejoin="round"/>
</svg>
