<svg width="20" height="27" viewBox="0 0 20 27" fill="none" xmlns="http://www.w3.org/2000/svg">
<path fill-rule="evenodd" clip-rule="evenodd" d="M12.5846 0.983693C12.942 1.13583 13.1739 1.48666 13.1739 1.87502V10.9143H18.2502C18.5947 10.9143 18.9132 11.0973 19.0869 11.3948C19.2605 11.6924 19.2631 12.0597 19.0936 12.3597L18.458 13.4845C16.0476 17.7504 12.9736 21.6055 9.35132 24.9052L8.32379 25.8412C8.04019 26.0995 7.63086 26.1662 7.27995 26.0112C6.92904 25.8561 6.70266 25.5086 6.70266 25.125V16.1623H1.4585C0.92347 16.1623 0.489746 15.7286 0.489746 15.1936C0.489746 15.0203 0.535246 14.8576 0.61495 14.7169C2.88672 10.5171 5.79527 6.69445 9.23719 3.38491L11.5337 1.17672C11.8137 0.907535 12.2273 0.831561 12.5846 0.983693ZM3.11774 14.2248H7.67141C8.20644 14.2248 8.64016 14.6586 8.64016 15.1936V22.9221C11.7642 19.9699 14.4419 16.5776 16.5883 12.8519H12.2052C11.6701 12.8519 11.2364 12.4181 11.2364 11.8831V4.15045L10.5801 4.78153C7.67284 7.57696 5.16276 10.7545 3.11774 14.2248Z" fill="#6AAF60"/>
</svg>
