<svg width="38" height="38" viewBox="0 0 38 38" fill="none" xmlns="http://www.w3.org/2000/svg">
<path fill-rule="evenodd" clip-rule="evenodd" d="M18.9998 34.8334C27.7443 34.8334 34.8332 27.7446 34.8332 19.0001C34.8332 10.2556 27.7443 3.16675 18.9998 3.16675C10.2553 3.16675 3.1665 10.2556 3.1665 19.0001C3.1665 27.7446 10.2553 34.8334 18.9998 34.8334Z" stroke="#FF8964"/>
<path fill-rule="evenodd" clip-rule="evenodd" d="M18.9998 33.25C18.9998 33.25 25.3332 28.0682 25.3332 19C25.3332 9.93182 18.9998 4.75 18.9998 4.75C18.9998 4.75 12.6665 9.93182 12.6665 19C12.6665 28.0682 18.9998 33.25 18.9998 33.25Z" stroke="#FF8964"/>
<path d="M3.95817 14.2501H34.0415" stroke="#FF8964" stroke-linecap="round"/>
<path d="M3.95817 23.7501H34.0415" stroke="#FF8964" stroke-linecap="round"/>
</svg>
