<svg width="163" height="60" viewBox="0 0 163 60" fill="none" xmlns="http://www.w3.org/2000/svg">
<path d="M14.12 21.6C15.8533 21.6 17.4 21.96 18.76 22.68C20.1467 23.4 21.2267 24.4667 22 25.88C22.7733 27.2933 23.16 29 23.16 31V44H18.64V31.68C18.64 29.7067 18.1467 28.2 17.16 27.16C16.1733 26.0933 14.8267 25.56 13.12 25.56C11.4133 25.56 10.0533 26.0933 9.04 27.16C8.05333 28.2 7.56 29.7067 7.56 31.68V44H3V21.96H7.56V24.48C8.30667 23.5733 9.25333 22.8667 10.4 22.36C11.5733 21.8533 12.8133 21.6 14.12 21.6ZM48.9366 21.96V44H44.3766V41.4C43.6566 42.3067 42.7099 43.0267 41.5366 43.56C40.3899 44.0667 39.1632 44.32 37.8566 44.32C36.1232 44.32 34.5632 43.96 33.1766 43.24C31.8166 42.52 30.7366 41.4533 29.9366 40.04C29.1632 38.6267 28.7766 36.92 28.7766 34.92V21.96H33.2966V34.24C33.2966 36.2133 33.7899 37.7333 34.7766 38.8C35.7632 39.84 37.1099 40.36 38.8166 40.36C40.5232 40.36 41.8699 39.84 42.8566 38.8C43.8699 37.7333 44.3766 36.2133 44.3766 34.24V21.96H48.9366ZM63.4731 39.92L69.7131 21.96H74.5531L66.1531 44H60.7131L52.3531 21.96H57.2331L63.4731 39.92ZM87.56 44.36C85.48 44.36 83.6 43.8933 81.92 42.96C80.24 42 78.92 40.6667 77.96 38.96C77 37.2267 76.52 35.2267 76.52 32.96C76.52 30.72 77.0133 28.7333 78 27C78.9867 25.2667 80.3333 23.9333 82.04 23C83.7467 22.0667 85.6533 21.6 87.76 21.6C89.8667 21.6 91.7733 22.0667 93.48 23C95.1867 23.9333 96.5333 25.2667 97.52 27C98.5067 28.7333 99 30.72 99 32.96C99 35.2 98.4933 37.1867 97.48 38.92C96.4667 40.6533 95.08 42 93.32 42.96C91.5867 43.8933 89.6667 44.36 87.56 44.36ZM87.56 40.4C88.7333 40.4 89.8267 40.12 90.84 39.56C91.88 39 92.72 38.16 93.36 37.04C94 35.92 94.32 34.56 94.32 32.96C94.32 31.36 94.0133 30.0133 93.4 28.92C92.7867 27.8 91.9733 26.96 90.96 26.4C89.9467 25.84 88.8533 25.56 87.68 25.56C86.5067 25.56 85.4133 25.84 84.4 26.4C83.4133 26.96 82.6267 27.8 82.04 28.92C81.4533 30.0133 81.16 31.36 81.16 32.96C81.16 35.3333 81.76 37.1733 82.96 38.48C84.1867 39.76 85.72 40.4 87.56 40.4ZM111.508 44.36C109.774 44.36 108.214 44.0533 106.828 43.44C105.468 42.8 104.388 41.9467 103.588 40.88C102.788 39.7867 102.361 38.5733 102.308 37.24H107.028C107.108 38.1733 107.548 38.96 108.348 39.6C109.174 40.2133 110.201 40.52 111.428 40.52C112.708 40.52 113.694 40.28 114.388 39.8C115.108 39.2933 115.468 38.6533 115.468 37.88C115.468 37.0533 115.068 36.44 114.268 36.04C113.494 35.64 112.254 35.2 110.548 34.72C108.894 34.2667 107.548 33.8267 106.508 33.4C105.468 32.9733 104.561 32.32 103.788 31.44C103.041 30.56 102.668 29.4 102.668 27.96C102.668 26.7867 103.014 25.72 103.708 24.76C104.401 23.7733 105.388 23 106.668 22.44C107.974 21.88 109.468 21.6 111.148 21.6C113.654 21.6 115.668 22.24 117.188 23.52C118.734 24.7733 119.561 26.4933 119.668 28.68H115.108C115.028 27.6933 114.628 26.9067 113.908 26.32C113.188 25.7333 112.214 25.44 110.988 25.44C109.788 25.44 108.868 25.6667 108.228 26.12C107.588 26.5733 107.268 27.1733 107.268 27.92C107.268 28.5067 107.481 29 107.908 29.4C108.334 29.8 108.854 30.12 109.468 30.36C110.081 30.5733 110.988 30.8533 112.188 31.2C113.788 31.6267 115.094 32.0667 116.108 32.52C117.148 32.9467 118.041 33.5867 118.788 34.44C119.534 35.2933 119.921 36.4267 119.948 37.84C119.948 39.0933 119.601 40.2133 118.908 41.2C118.214 42.1867 117.228 42.96 115.948 43.52C114.694 44.08 113.214 44.36 111.508 44.36ZM123.355 32.88C123.355 30.6667 123.808 28.7067 124.715 27C125.648 25.2933 126.902 23.9733 128.475 23.04C130.075 22.08 131.835 21.6 133.755 21.6C135.488 21.6 136.995 21.9467 138.275 22.64C139.582 23.3067 140.622 24.1467 141.395 25.16V21.96H145.995V44H141.395V40.72C140.622 41.76 139.568 42.6267 138.235 43.32C136.902 44.0133 135.382 44.36 133.675 44.36C131.782 44.36 130.048 43.88 128.475 42.92C126.902 41.9333 125.648 40.5733 124.715 38.84C123.808 37.08 123.355 35.0933 123.355 32.88ZM141.395 32.96C141.395 31.44 141.075 30.12 140.435 29C139.822 27.88 139.008 27.0267 137.995 26.44C136.982 25.8533 135.888 25.56 134.715 25.56C133.542 25.56 132.448 25.8533 131.435 26.44C130.422 27 129.595 27.84 128.955 28.96C128.342 30.0533 128.035 31.36 128.035 32.88C128.035 34.4 128.342 35.7333 128.955 36.88C129.595 38.0267 130.422 38.9067 131.435 39.52C132.475 40.1067 133.568 40.4 134.715 40.4C135.888 40.4 136.982 40.1067 137.995 39.52C139.008 38.9333 139.822 38.08 140.435 36.96C141.075 35.8133 141.395 34.48 141.395 32.96Z" fill="#212528"/>
<circle cx="157.5" cy="33.5" r="5.5" fill="#BC424E"/>
</svg>
